<svg width="1200" height="900" viewBox="0 0 1200 900" fill="none" xmlns="http://www.w3.org/2000/svg">
  <rect width="1200" height="900" rx="44" fill="#041E3C"/>
  <rect x="48" y="48" width="1104" height="804" rx="34" fill="url(#paint0_linear)"/>
  <circle cx="842" cy="280" r="220" fill="url(#paint1_radial)" fill-opacity="0.7"/>
  <circle cx="300" cy="650" r="220" fill="url(#paint2_radial)" fill-opacity="0.6"/>
  <rect x="132" y="160" width="430" height="250" rx="28" fill="#0D315B" stroke="#2D5C86"/>
  <rect x="638" y="188" width="238" height="112" rx="24" fill="#0A2A4C" stroke="#2D5C86"/>
  <rect x="908" y="188" width="160" height="112" rx="24" fill="#0A2A4C" stroke="#2D5C86"/>
  <rect x="710" y="360" width="358" height="268" rx="28" fill="#0A2A4C" stroke="#2D5C86"/>
  <rect x="164" y="470" width="470" height="212" rx="28" fill="#0A2A4C" stroke="#2D5C86"/>
  <path d="M562 285H650" stroke="#5FC5FF" stroke-width="4" stroke-linecap="round"/>
  <path d="M876 244H908" stroke="#5FC5FF" stroke-width="4" stroke-linecap="round"/>
  <path d="M844 300V360" stroke="#5FC5FF" stroke-width="4" stroke-linecap="round"/>
  <path d="M402 410V470" stroke="#19C7AE" stroke-width="4" stroke-linecap="round"/>
  <circle cx="218" cy="226" r="52" fill="#19C7AE" fill-opacity="0.16" stroke="#19C7AE" stroke-width="2"/>
  <circle cx="356" cy="286" r="84" fill="#5FC5FF" fill-opacity="0.12" stroke="#5FC5FF" stroke-width="2"/>
  <circle cx="500" cy="218" r="34" fill="#19C7AE" fill-opacity="0.2" stroke="#19C7AE" stroke-width="2"/>
  <circle cx="760" cy="244" r="18" fill="#19C7AE"/>
  <circle cx="978" cy="244" r="18" fill="#5FC5FF"/>
  <circle cx="844" cy="360" r="18" fill="#19C7AE"/>
  <circle cx="402" cy="470" r="18" fill="#5FC5FF"/>
  <rect x="770" y="420" width="238" height="20" rx="10" fill="#D8F6F1"/>
  <rect x="770" y="462" width="188" height="16" rx="8" fill="#6EB7E3" fill-opacity="0.5"/>
  <rect x="770" y="498" width="200" height="16" rx="8" fill="#6EB7E3" fill-opacity="0.35"/>
  <rect x="770" y="560" width="92" height="28" rx="14" fill="#19C7AE"/>
  <rect x="206" y="528" width="206" height="18" rx="9" fill="#D8F6F1"/>
  <rect x="206" y="564" width="308" height="16" rx="8" fill="#6EB7E3" fill-opacity="0.45"/>
  <rect x="206" y="600" width="258" height="16" rx="8" fill="#6EB7E3" fill-opacity="0.28"/>
  <defs>
    <linearGradient id="paint0_linear" x1="600" y1="48" x2="600" y2="852" gradientUnits="userSpaceOnUse">
      <stop stop-color="#08284B"/>
      <stop offset="1" stop-color="#062240"/>
    </linearGradient>
    <radialGradient id="paint1_radial" cx="0" cy="0" r="1" gradientUnits="userSpaceOnUse" gradientTransform="translate(842 280) rotate(90) scale(220)">
      <stop stop-color="#19C7AE"/>
      <stop offset="1" stop-color="#19C7AE" stop-opacity="0"/>
    </radialGradient>
    <radialGradient id="paint2_radial" cx="0" cy="0" r="1" gradientUnits="userSpaceOnUse" gradientTransform="translate(300 650) rotate(90) scale(220)">
      <stop stop-color="#5FC5FF"/>
      <stop offset="1" stop-color="#5FC5FF" stop-opacity="0"/>
    </radialGradient>
  </defs>
</svg>
