<svg width="1200" height="900" viewBox="0 0 1200 900" fill="none" xmlns="http://www.w3.org/2000/svg">
  <rect width="1200" height="900" rx="44" fill="#041E3C"/>
  <rect x="56" y="56" width="1088" height="788" rx="34" fill="url(#paint0_linear)"/>
  <circle cx="824" cy="266" r="220" fill="url(#paint1_radial)"/>
  <rect x="146" y="178" width="390" height="520" rx="34" fill="#0A2A4C" stroke="#29567C"/>
  <rect x="214" y="246" width="254" height="320" rx="26" fill="#F8FBFF"/>
  <rect x="252" y="290" width="178" height="20" rx="10" fill="#0D315B"/>
  <rect x="252" y="330" width="132" height="14" rx="7" fill="#7BAED5"/>
  <rect x="252" y="388" width="178" height="14" rx="7" fill="#D0E8F9"/>
  <rect x="252" y="418" width="148" height="14" rx="7" fill="#D0E8F9"/>
  <rect x="252" y="462" width="124" height="36" rx="18" fill="#19C7AE"/>
  <rect x="648" y="172" width="392" height="170" rx="30" fill="#0A2A4C" stroke="#29567C"/>
  <rect x="648" y="390" width="392" height="146" rx="30" fill="#0A2A4C" stroke="#29567C"/>
  <rect x="648" y="584" width="392" height="120" rx="30" fill="#0A2A4C" stroke="#29567C"/>
  <path d="M536 438H648" stroke="#5FC5FF" stroke-width="4" stroke-linecap="round"/>
  <circle cx="592" cy="438" r="18" fill="#5FC5FF"/>
  <circle cx="754" cy="258" r="22" fill="#19C7AE"/>
  <circle cx="944" cy="258" r="22" fill="#5FC5FF"/>
  <circle cx="842" cy="462" r="22" fill="#19C7AE"/>
  <circle cx="780" cy="642" r="22" fill="#5FC5FF"/>
  <rect x="710" y="230" width="180" height="20" rx="10" fill="#D8F6F1"/>
  <rect x="710" y="268" width="228" height="16" rx="8" fill="#6EB7E3" fill-opacity="0.4"/>
  <rect x="710" y="444" width="204" height="20" rx="10" fill="#D8F6F1"/>
  <rect x="710" y="482" width="248" height="16" rx="8" fill="#6EB7E3" fill-opacity="0.4"/>
  <rect x="710" y="626" width="188" height="20" rx="10" fill="#D8F6F1"/>
  <rect x="930" y="626" width="74" height="28" rx="14" fill="#19C7AE"/>
  <defs>
    <linearGradient id="paint0_linear" x1="600" y1="56" x2="600" y2="844" gradientUnits="userSpaceOnUse">
      <stop stop-color="#08284B"/>
      <stop offset="1" stop-color="#062240"/>
    </linearGradient>
    <radialGradient id="paint1_radial" cx="0" cy="0" r="1" gradientUnits="userSpaceOnUse" gradientTransform="translate(824 266) rotate(90) scale(220)">
      <stop stop-color="#19C7AE" stop-opacity="0.55"/>
      <stop offset="1" stop-color="#19C7AE" stop-opacity="0"/>
    </radialGradient>
  </defs>
</svg>
