<svg width="1200" height="900" viewBox="0 0 1200 900" fill="none" xmlns="http://www.w3.org/2000/svg">
  <rect width="1200" height="900" rx="44" fill="#041E3C"/>
  <rect x="52" y="52" width="1096" height="796" rx="34" fill="url(#paint0_linear)"/>
  <circle cx="916" cy="194" r="180" fill="url(#paint1_radial)"/>
  <rect x="118" y="140" width="412" height="620" rx="30" fill="#0A2A4C" stroke="#29567C"/>
  <rect x="610" y="184" width="476" height="164" rx="30" fill="#0A2A4C" stroke="#29567C"/>
  <rect x="610" y="392" width="476" height="164" rx="30" fill="#0A2A4C" stroke="#29567C"/>
  <rect x="610" y="600" width="476" height="128" rx="30" fill="#0A2A4C" stroke="#29567C"/>
  <path d="M530 450H610" stroke="#5FC5FF" stroke-width="4" stroke-linecap="round"/>
  <path d="M312 316L312 584" stroke="#19C7AE" stroke-width="4" stroke-linecap="round"/>
  <path d="M312 450H478" stroke="#19C7AE" stroke-width="4" stroke-linecap="round"/>
  <circle cx="312" cy="258" r="52" fill="#19C7AE" fill-opacity="0.15" stroke="#19C7AE" stroke-width="2"/>
  <circle cx="312" cy="450" r="86" fill="#5FC5FF" fill-opacity="0.12" stroke="#5FC5FF" stroke-width="2"/>
  <circle cx="312" cy="642" r="52" fill="#19C7AE" fill-opacity="0.15" stroke="#19C7AE" stroke-width="2"/>
  <circle cx="478" cy="450" r="22" fill="#5FC5FF"/>
  <rect x="672" y="230" width="176" height="20" rx="10" fill="#D8F6F1"/>
  <rect x="672" y="268" width="300" height="16" rx="8" fill="#6EB7E3" fill-opacity="0.45"/>
  <rect x="672" y="438" width="206" height="20" rx="10" fill="#D8F6F1"/>
  <rect x="672" y="476" width="250" height="16" rx="8" fill="#6EB7E3" fill-opacity="0.45"/>
  <rect x="672" y="646" width="236" height="20" rx="10" fill="#D8F6F1"/>
  <rect x="932" y="230" width="92" height="28" rx="14" fill="#19C7AE"/>
  <rect x="960" y="438" width="92" height="28" rx="14" fill="#5FC5FF"/>
  <rect x="960" y="646" width="92" height="28" rx="14" fill="#19C7AE"/>
  <defs>
    <linearGradient id="paint0_linear" x1="600" y1="52" x2="600" y2="848" gradientUnits="userSpaceOnUse">
      <stop stop-color="#08284B"/>
      <stop offset="1" stop-color="#062240"/>
    </linearGradient>
    <radialGradient id="paint1_radial" cx="0" cy="0" r="1" gradientUnits="userSpaceOnUse" gradientTransform="translate(916 194) rotate(90) scale(180)">
      <stop stop-color="#19C7AE" stop-opacity="0.55"/>
      <stop offset="1" stop-color="#19C7AE" stop-opacity="0"/>
    </radialGradient>
  </defs>
</svg>
